<svg width="770" height="722" viewBox="0 0 770 722" fill="none" xmlns="http://www.w3.org/2000/svg">
<g opacity="0.7">
<g filter="url(#filter0_bdd_855_11399)">
<path d="M467.419 164.013C471.202 149.896 491.234 149.896 495.017 164.013L496.802 170.676C522.39 266.161 597.057 340.69 692.589 366.1L699.558 367.953C713.71 371.717 713.71 391.801 699.558 395.565L692.589 397.419C597.057 422.828 522.39 497.358 496.802 592.842L495.017 599.505C491.234 613.623 471.202 613.623 467.419 599.505L465.634 592.843C440.046 497.358 365.379 422.828 269.847 397.419L262.878 395.565C248.726 391.801 248.726 371.717 262.878 367.953L269.847 366.1C365.379 340.69 440.046 266.161 465.634 170.676L467.419 164.013Z" fill="#C89850"/>
<path d="M468.569 164.321C472.037 151.38 490.399 151.38 493.867 164.321L495.653 170.984C521.35 266.881 596.339 341.731 692.283 367.25L699.252 369.104C712.224 372.554 712.224 390.964 699.252 394.415L692.283 396.268C596.34 421.787 521.35 496.638 495.653 592.534L493.867 599.197C490.399 612.138 472.037 612.138 468.569 599.197L466.783 592.534C441.086 496.638 366.097 421.788 270.153 396.268L263.184 394.415C250.212 390.964 250.212 372.554 263.184 369.104L270.153 367.25C366.097 341.731 441.086 266.881 466.783 170.984L468.569 164.321Z" stroke="#B6B7B9" stroke-width="2.38098"/>
</g>
<g filter="url(#filter1_b_855_11399)">
<path d="M305.673 51.4939C309.456 37.3764 329.488 37.3764 333.271 51.4938L334.844 57.3647C360.432 152.849 435.1 227.378 530.632 252.788L536.807 254.43C550.959 258.194 550.959 278.278 536.807 282.042L530.632 283.684C435.1 309.094 360.432 383.623 334.844 479.108L333.271 484.978C329.488 499.096 309.456 499.096 305.673 484.978L304.1 479.108C278.513 383.623 203.845 309.094 108.312 283.684L102.137 282.042C87.9857 278.278 87.9858 258.194 102.138 254.43L108.312 252.788C203.845 227.378 278.513 152.85 304.1 57.3647L305.673 51.4939Z" fill="#271C0C"/>
<path d="M306.823 51.8021C310.291 38.861 328.653 38.861 332.121 51.802L333.694 57.6728C359.392 153.569 434.382 228.419 530.326 253.938L536.501 255.581C549.473 259.031 549.473 277.441 536.501 280.892L530.326 282.534C434.382 308.053 359.392 382.903 333.695 478.799L332.121 484.67C328.653 497.611 310.291 497.611 306.823 484.67L305.25 478.799C279.552 382.903 204.562 308.053 108.618 282.534L102.443 280.891C89.4711 277.441 89.4711 259.031 102.444 255.581L108.618 253.938C204.562 228.419 279.552 153.569 305.25 57.6729L306.823 51.8021Z" stroke="#271C0C" stroke-width="2.38098"/>
</g>
<path d="M529.208 43.3545C529.608 39.4524 535.3 39.4524 535.7 43.3545C537.585 61.7446 552.15 76.3034 570.547 78.143C574.447 78.533 574.447 84.217 570.547 84.607C552.15 86.4466 537.585 101.005 535.7 119.396C535.3 123.298 529.608 123.298 529.208 119.396C527.323 101.005 512.758 86.4466 494.361 84.607C490.461 84.217 490.461 78.533 494.361 78.143C512.758 76.3034 527.323 61.7446 529.208 43.3545Z" fill="#271C0C" stroke="black" stroke-width="2.38098"/>
<path d="M48.7213 160.827C48.9084 159.016 51.5546 159.016 51.7417 160.827C52.9171 172.206 61.9383 181.222 73.3259 182.351C75.1322 182.53 75.1322 185.164 73.3259 185.343C61.9383 186.473 52.9171 195.488 51.7417 206.867C51.5546 208.678 48.9084 208.678 48.7213 206.867C47.5459 195.488 38.5247 186.473 27.1371 185.343C25.3308 185.164 25.3308 182.53 27.1371 182.351C38.5247 181.222 47.5459 172.206 48.7213 160.827Z" fill="#C89850" stroke="black" stroke-width="2.38098"/>
<g filter="url(#filter2_bdd_855_11399)">
<path d="M467.419 164.013C471.202 149.896 491.234 149.896 495.017 164.013L496.802 170.676C522.39 266.161 597.057 340.69 692.589 366.1L699.558 367.953C713.71 371.717 713.71 391.801 699.558 395.565L692.589 397.419C597.057 422.828 522.39 497.358 496.802 592.842L495.017 599.505C491.234 613.623 471.202 613.623 467.419 599.505L465.634 592.843C440.046 497.358 365.379 422.828 269.847 397.419L262.878 395.565C248.726 391.801 248.726 371.717 262.878 367.953L269.847 366.1C365.379 340.69 440.046 266.161 465.634 170.676L467.419 164.013Z" fill="#C89850"/>
<path d="M468.569 164.321C472.037 151.38 490.399 151.38 493.867 164.321L495.653 170.984C521.35 266.881 596.339 341.731 692.283 367.25L699.252 369.104C712.224 372.554 712.224 390.964 699.252 394.415L692.283 396.268C596.34 421.787 521.35 496.638 495.653 592.534L493.867 599.197C490.399 612.138 472.037 612.138 468.569 599.197L466.783 592.534C441.086 496.638 366.097 421.788 270.153 396.268L263.184 394.415C250.212 390.964 250.212 372.554 263.184 369.104L270.153 367.25C366.097 341.731 441.086 266.881 466.783 170.984L468.569 164.321Z" stroke="#B6B7B9" stroke-width="2.38098"/>
</g>
<path d="M529.208 43.3545C529.608 39.4524 535.3 39.4524 535.7 43.3545C537.585 61.7446 552.15 76.3034 570.547 78.143C574.447 78.533 574.447 84.217 570.547 84.607C552.15 86.4466 537.585 101.005 535.7 119.396C535.3 123.298 529.608 123.298 529.208 119.396C527.323 101.005 512.758 86.4466 494.361 84.607C490.461 84.217 490.461 78.533 494.361 78.143C512.758 76.3034 527.323 61.7446 529.208 43.3545Z" fill="#271C0C" stroke="black" stroke-width="2.38098"/>
<path d="M48.7213 160.827C48.9084 159.016 51.5546 159.016 51.7417 160.827C52.9171 172.206 61.9383 181.222 73.3259 182.351C75.1322 182.53 75.1322 185.164 73.3259 185.343C61.9383 186.473 52.9171 195.488 51.7417 206.867C51.5546 208.678 48.9084 208.678 48.7213 206.867C47.5459 195.488 38.5247 186.473 27.1371 185.343C25.3308 185.164 25.3308 182.53 27.1371 182.351C38.5247 181.222 47.5459 172.206 48.7213 160.827Z" fill="#C89850" stroke="black" stroke-width="2.38098"/>
</g>
<defs>
<filter id="filter0_bdd_855_11399" x="121.311" y="34.3762" width="707.91" height="718.576" filterUnits="userSpaceOnUse" color-interpolation-filters="sRGB">
<feFlood flood-opacity="0" result="BackgroundImageFix"/>
<feGaussianBlur in="BackgroundImageFix" stdDeviation="59.5244"/>
<feComposite in2="SourceAlpha" operator="in" result="effect1_backgroundBlur_855_11399"/>
<feColorMatrix in="SourceAlpha" type="matrix" values="0 0 0 0 0 0 0 0 0 0 0 0 0 0 0 0 0 0 127 0" result="hardAlpha"/>
<feOffset dx="47.6195" dy="47.6195"/>
<feGaussianBlur stdDeviation="4.76195"/>
<feComposite in2="hardAlpha" operator="out"/>
<feColorMatrix type="matrix" values="0 0 0 0 0.956863 0 0 0 0 0.898823 0 0 0 0 0.811765 0 0 0 1 0"/>
<feBlend mode="normal" in2="effect1_backgroundBlur_855_11399" result="effect2_dropShadow_855_11399"/>
<feColorMatrix in="SourceAlpha" type="matrix" values="0 0 0 0 0 0 0 0 0 0 0 0 0 0 0 0 0 0 127 0" result="hardAlpha"/>
<feOffset dx="-35.7147" dy="47.6195"/>
<feGaussianBlur stdDeviation="47.6195"/>
<feComposite in2="hardAlpha" operator="out"/>
<feColorMatrix type="matrix" values="0 0 0 0 0 0 0 0 0 0 0 0 0 0 0 0 0 0 0.25 0"/>
<feBlend mode="normal" in2="effect2_dropShadow_855_11399" result="effect3_dropShadow_855_11399"/>
<feBlend mode="normal" in="SourceGraphic" in2="effect3_dropShadow_855_11399" result="shape"/>
</filter>
<filter id="filter1_b_855_11399" x="20.0941" y="-30.5236" width="598.756" height="597.519" filterUnits="userSpaceOnUse" color-interpolation-filters="sRGB">
<feFlood flood-opacity="0" result="BackgroundImageFix"/>
<feGaussianBlur in="BackgroundImageFix" stdDeviation="35.7147"/>
<feComposite in2="SourceAlpha" operator="in" result="effect1_backgroundBlur_855_11399"/>
<feBlend mode="normal" in="SourceGraphic" in2="effect1_backgroundBlur_855_11399" result="shape"/>
</filter>
<filter id="filter2_bdd_855_11399" x="121.311" y="34.3762" width="707.91" height="718.576" filterUnits="userSpaceOnUse" color-interpolation-filters="sRGB">
<feFlood flood-opacity="0" result="BackgroundImageFix"/>
<feGaussianBlur in="BackgroundImageFix" stdDeviation="59.5244"/>
<feComposite in2="SourceAlpha" operator="in" result="effect1_backgroundBlur_855_11399"/>
<feColorMatrix in="SourceAlpha" type="matrix" values="0 0 0 0 0 0 0 0 0 0 0 0 0 0 0 0 0 0 127 0" result="hardAlpha"/>
<feOffset dx="47.6195" dy="47.6195"/>
<feGaussianBlur stdDeviation="4.76195"/>
<feComposite in2="hardAlpha" operator="out"/>
<feColorMatrix type="matrix" values="0 0 0 0 0.956863 0 0 0 0 0.898823 0 0 0 0 0.811765 0 0 0 1 0"/>
<feBlend mode="normal" in2="effect1_backgroundBlur_855_11399" result="effect2_dropShadow_855_11399"/>
<feColorMatrix in="SourceAlpha" type="matrix" values="0 0 0 0 0 0 0 0 0 0 0 0 0 0 0 0 0 0 127 0" result="hardAlpha"/>
<feOffset dx="-35.7147" dy="47.6195"/>
<feGaussianBlur stdDeviation="47.6195"/>
<feComposite in2="hardAlpha" operator="out"/>
<feColorMatrix type="matrix" values="0 0 0 0 0 0 0 0 0 0 0 0 0 0 0 0 0 0 0.25 0"/>
<feBlend mode="normal" in2="effect2_dropShadow_855_11399" result="effect3_dropShadow_855_11399"/>
<feBlend mode="normal" in="SourceGraphic" in2="effect3_dropShadow_855_11399" result="shape"/>
</filter>
</defs>
</svg>
